# Blender v2.82 (sub 7) OBJ File: ''
# www.blender.org
mtllib base.mtl
o Cube.001
v 0.750000 0.750000 -0.080176
v -0.750000 0.750000 -0.080176
v -0.750000 -0.750000 -0.080176
v 0.750000 -0.750000 -0.080176
v 0.750000 -0.750000 -0.092176
v -0.750000 -0.750000 -0.092176
v -0.750000 0.750000 -0.092176
v 0.750000 0.750000 -0.092176
vt 0.277806 0.107969
vt 0.718766 0.108290
vt 0.718791 0.891668
vt 0.278213 0.891947
vt 0.375000 0.909356
vt 0.625000 0.909356
vt 0.625000 0.984367
vt 0.375000 0.984367
vt 0.742477 0.048997
vt 0.992477 0.048997
vt 0.992477 0.180004
vt 0.742477 0.180004
vt 0.125000 0.500000
vt 0.267382 0.500000
vt 0.267382 0.894658
vt 0.125000 0.894658
vt 0.750351 0.500000
vt 1.000352 0.500000
vt 1.000352 0.894658
vt 0.750351 0.894658
vt 0.992477 0.430004
vt 0.742477 0.430004
vn 0.0000 -0.0000 1.0000
vn 0.0000 -1.0000 0.0000
vn -1.0000 0.0000 0.0000
vn 0.0000 0.0000 -1.0000
vn 1.0000 0.0000 0.0000
vn 0.0000 1.0000 0.0000
g Cube.001_Cube.001_Material.001
usemtl Material.001
s 1
f 1/1/1 2/2/1 3/3/1 4/4/1
f 5/5/2 4/6/2 3/7/2 6/8/2
f 6/9/3 3/10/3 2/11/3 7/12/3
f 7/13/4 8/14/4 5/15/4 6/16/4
f 8/17/5 1/18/5 4/19/5 5/20/5
f 7/12/6 2/11/6 1/21/6 8/22/6
