# Blender v2.82 (sub 7) OBJ File: ''
# www.blender.org
mtllib measure_gas_high_base_right.mtl
o measure_gas_3_Body1.026_Body1.022
v -0.054999 -0.055000 0.000000
v -0.054999 -0.055000 0.001000
v -0.054999 0.000001 0.000500
v -0.054999 0.055000 0.001000
v -0.054999 0.055000 0.000000
v 0.055001 -0.055000 0.000000
v 0.055001 -0.055000 0.001000
v 0.000001 -0.055000 0.000500
v 0.055001 0.055000 0.000000
v 0.055001 0.055000 0.001000
v 0.055001 0.000001 0.000500
v 0.000001 0.055000 0.000500
v 0.000001 0.000001 0.000000
v 0.000001 0.000001 0.001000
vt 1.270681 0.500000
vt 1.275227 0.500000
vt 1.272954 0.750001
vt 1.275227 1.000000
vt 1.270681 1.000000
vt 1.261590 0.500000
vt 1.266135 0.500000
vt 1.263862 0.749999
vt 1.266135 0.999998
vt 1.261590 0.999998
vt 1.270681 1.000000
vt 1.266136 1.000000
vt 1.268409 0.750001
vt 1.270681 0.500000
vt 1.275227 0.500000
vt 1.279773 0.500000
vt 1.277500 0.749999
vt 1.279773 0.999998
vt 1.275227 0.999998
vt 2.261590 0.000000
vt 2.261590 0.500000
vt 2.011590 0.250001
vt 1.761590 0.500000
vt 1.761590 0.000000
vt 1.000000 0.000000
vt 1.000000 1.000000
vt 0.500000 0.500002
vt 0.000000 1.000000
vt 0.000000 0.000000
vn -1.0000 -0.0000 0.0000
vn 0.0000 -1.0000 0.0000
vn 1.0000 -0.0000 0.0000
vn 1.0000 0.0000 0.0003
vn 0.0000 1.0000 0.0000
vn 0.0000 -0.0000 -1.0000
vn -0.0000 0.0000 1.0000
usemtl Paint_-_Enamel_Glossy_(White).001
s 1
f 1/1/1 2/2/1 3/3/1
f 3/3/1 2/2/1 4/4/1
f 3/3/1 4/4/1 5/5/1
f 5/5/1 1/1/1 3/3/1
f 6/6/2 7/7/2 8/8/2
f 8/8/2 7/7/2 2/9/2
f 8/8/2 2/9/2 1/10/2
f 1/10/2 6/6/2 8/8/2
f 9/11/3 10/12/3 11/13/4
f 11/13/4 10/12/3 7/7/3
f 11/13/4 7/7/3 6/14/3
f 6/14/3 9/11/3 11/13/4
f 5/15/5 4/16/5 12/17/5
f 12/17/5 4/16/5 10/18/5
f 12/17/5 10/18/5 9/19/5
f 9/19/5 5/15/5 12/17/5
f 1/20/6 5/21/6 13/22/6
f 13/22/6 5/21/6 9/23/6
f 13/22/6 9/23/6 6/24/6
f 6/24/6 1/20/6 13/22/6
f 7/25/7 10/26/7 14/27/7
f 14/27/7 10/26/7 4/28/7
f 14/27/7 4/28/7 2/29/7
f 2/29/7 7/25/7 14/27/7
