# Blender v2.82 (sub 7) OBJ File: ''
# www.blender.org
mtllib equipment_A.mtl
o equipment_A_Body1.037_Body1.001
v 0.049999 -0.050000 0.100073
v 0.049999 -0.050000 0.000073
v 0.049999 0.000000 0.050073
v 0.049999 0.050000 0.000073
v 0.049999 0.050000 0.100073
v -0.050001 -0.050000 0.100073
v -0.050001 -0.050000 0.000073
v -0.000001 -0.050000 0.050073
v -0.050001 0.050000 0.100073
v -0.050001 0.050000 0.000073
v -0.050001 0.000000 0.050073
v -0.000001 0.050000 0.050073
v -0.000001 0.000000 0.100073
v -0.000001 0.000000 0.000073
vt 0.000000 0.333334
vt 0.333333 0.333334
vt 0.166667 0.499999
vt 0.333333 0.666667
vt 0.000000 0.666667
vt 0.999999 0.333333
vt 0.999999 0.666666
vt 0.833332 0.500000
vt 0.666667 0.666666
vt 0.666667 0.333333
vt 0.333333 0.000000
vt 0.666667 0.000000
vt 0.500000 0.166668
vt 0.666667 0.333333
vt 0.333333 0.333333
vt 0.333333 0.000000
vt 0.333333 0.333334
vt 0.166668 0.166668
vt 0.000000 0.333334
vt 0.000000 0.000000
vt 0.000000 1.000000
vt 0.166667 0.833333
vt 0.333333 0.666667
vt 0.333333 1.000000
vt 1.000000 0.000000
vt 1.000000 0.333333
vt 0.833333 0.166667
vt 0.666667 0.333333
vt 0.666667 0.000000
vn 1.0000 -0.0000 0.0000
vn -0.0000 -1.0000 0.0000
vn -1.0000 0.0000 -0.0000
vn 0.0000 1.0000 -0.0000
vn 0.0000 0.0000 1.0000
vn 0.0000 -0.0000 -1.0000
usemtl DisplayA.001
s 1
f 1/1/1 2/2/1 3/3/1
f 3/3/1 2/2/1 4/4/1
f 3/3/1 4/4/1 5/5/1
f 5/5/1 1/1/1 3/3/1
f 6/6/2 7/7/2 8/8/2
f 8/8/2 7/7/2 2/9/2
f 8/8/2 2/9/2 1/10/2
f 1/10/2 6/6/2 8/8/2
f 9/11/3 10/12/3 11/13/3
f 11/13/3 10/12/3 7/14/3
f 11/13/3 7/14/3 6/15/3
f 6/15/3 9/11/3 11/13/3
f 5/16/4 4/17/4 12/18/4
f 12/18/4 4/17/4 10/19/4
f 12/18/4 10/19/4 9/20/4
f 9/20/4 5/16/4 12/18/4
f 1/21/5 5/5/5 13/22/5
f 13/22/5 5/5/5 9/23/5
f 13/22/5 9/23/5 6/24/5
f 6/24/5 1/21/5 13/22/5
f 7/25/6 10/26/6 14/27/6
f 14/27/6 10/26/6 4/28/6
f 14/27/6 4/28/6 2/29/6
f 2/29/6 7/25/6 14/27/6
