# Blender v2.82 (sub 7) OBJ File: ''
# www.blender.org
mtllib sensor_green.mtl
o sensor_green_1_Body1.030_Body1.026
v 0.031377 -0.016293 -0.005000
v 0.031377 -0.016293 0.005000
v 0.007542 -0.023835 0.000000
v -0.016293 -0.031377 0.005000
v -0.016293 -0.031377 -0.005000
v 0.016294 0.031377 -0.005000
v 0.016294 0.031377 0.005000
v 0.023836 0.007543 0.000000
v -0.031377 0.016294 -0.005000
v -0.031377 0.016294 0.005000
v -0.007542 0.023836 -0.000000
v -0.023835 -0.007541 -0.000000
v 0.000000 0.000001 -0.005000
v 0.000000 0.000001 0.005000
vt -0.000000 1.000000
vt -0.000000 -0.000000
vt 2.500000 0.500000
vt 5.000000 -0.000000
vt 5.000000 1.000000
vt 0.000000 1.000000
vt 0.000000 -0.000000
vt 2.500000 0.500000
vt 5.000000 -0.000000
vt 5.000000 1.000000
vt -0.000000 1.000000
vt -0.000000 -0.000000
vt 2.500000 0.500000
vt 5.000000 -0.000000
vt 5.000000 1.000000
vt 0.000000 1.000000
vt 0.000000 -0.000000
vt 2.500000 0.500000
vt 5.000000 -0.000000
vt 5.000000 1.000000
vt -3.137712 -1.629344
vt 1.629344 -3.137712
vt 0.000000 0.000000
vt 3.137712 1.629344
vt -1.629344 3.137712
vt 1.629344 3.137712
vt -3.137712 1.629344
vt 0.000000 0.000000
vt -1.629344 -3.137712
vt 3.137712 -1.629344
vn 0.3017 -0.9534 -0.0000
vn 0.9534 0.3017 -0.0000
vn 0.9534 0.3016 0.0000
vn -0.3017 0.9534 -0.0000
vn -0.3016 0.9534 -0.0000
vn -0.9534 -0.3017 0.0000
vn 0.0000 -0.0000 -1.0000
vn -0.0000 0.0000 1.0000
usemtl Paint_-_Enamel_Glossy_(Green).001
s 1
f 1/1/1 2/2/1 3/3/1
f 3/3/1 2/2/1 4/4/1
f 3/3/1 4/4/1 5/5/1
f 5/5/1 1/1/1 3/3/1
f 6/6/2 7/7/2 8/8/2
f 8/8/2 7/7/2 2/9/3
f 8/8/2 2/9/3 1/10/3
f 1/10/3 6/6/2 8/8/2
f 9/11/4 10/12/4 11/13/5
f 11/13/5 10/12/4 7/14/5
f 11/13/5 7/14/5 6/15/5
f 6/15/5 9/11/4 11/13/5
f 5/16/6 4/17/6 12/18/6
f 12/18/6 4/17/6 10/19/6
f 12/18/6 10/19/6 9/20/6
f 9/20/6 5/16/6 12/18/6
f 1/21/7 5/22/7 13/23/7
f 13/23/7 5/22/7 9/24/7
f 13/23/7 9/24/7 6/25/7
f 6/25/7 1/21/7 13/23/7
f 7/26/8 10/27/8 14/28/8
f 14/28/8 10/27/8 4/29/8
f 14/28/8 4/29/8 2/30/8
f 2/30/8 7/26/8 14/28/8
